# xmcd
#
# Track frame offsets: 
#        150
#        24272
#        40219
#        63434
#        83056
#        96341
#        113016
#        133876
#        155111
#        167846
#        184731
#
# Disc length: 2734 seconds
#
# Revision: 0
# Processed by: cddbd v1.5.2PL0 Copyright (c) Steve Scherf et al.
# Submitted via: ExactAudioCopyFreeDBPlugin 1.0
#
DISCID=8f0aac0b
DTITLE=Harry Belafonte - Sings The Blues
DYEAR=1958
DGENRE=Blues
TTITLE0=Cotton Fields
TTITLE1=In the Evenin' Mama
TTITLE2=God Bless the Child
TTITLE3=Losing Hand
TTITLE4=Hallelujah I Love Her So
TTITLE5=A Fool for You
TTITLE6=One for My Baby
TTITLE7=Fare Thee Well
TTITLE8=Mary Ann
TTITLE9=Sinner's Prayer
TTITLE10=The Way That I Feel
EXTD=
EXTT0=
EXTT1=
EXTT2=
EXTT3=
EXTT4=
EXTT5=
EXTT6=
EXTT7=
EXTT8=
EXTT9=
EXTT10=
PLAYORDER=
